<?xml version="1.0" encoding="iso-8859-1"?>
<!-- Generator: Adobe Illustrator 19.0.0, SVG Export Plug-In . SVG Version: 6.00 Build 0)  -->
<svg version="1.1" id="Capa_1" xmlns="http://www.w3.org/2000/svg" xmlns:xlink="http://www.w3.org/1999/xlink" x="0px" y="0px"
	 viewBox="0 0 512 512" style="enable-background:new 0 0 512 512;" xml:space="preserve">
<path style="fill:#FF4A4A;" d="M256,7.502c104.971,0,190.066,85.095,190.066,190.066c0,159.851-190.066,306.93-190.066,306.93
	S65.933,357.419,65.933,197.568C65.933,92.597,151.03,7.502,256,7.502z"/>
<g>
	<path style="fill:#E7343F;" d="M256,7.502c-6.074,0-12.078,0.297-18.005,0.854c96.524,9.072,172.061,90.315,172.061,189.212
		c0,129.458-124.656,250.533-172.061,291.896C249.123,499.175,256,504.497,256,504.497s190.066-147.078,190.066-306.93
		C446.066,92.597,360.97,7.502,256,7.502z"/>
	<circle style="fill:#E7343F;" cx="255.996" cy="197.568" r="129.878"/>
</g>
<path style="fill:#FFDB57;" d="M263.579,113.158l20.038,40.602c1.231,2.495,3.611,4.223,6.364,4.623l44.807,6.511
	c6.932,1.007,9.7,9.527,4.684,14.416l-32.423,31.604c-1.993,1.942-2.901,4.739-2.431,7.481l7.654,44.626
	c1.184,6.904-6.063,12.17-12.263,8.91l-40.077-21.069c-2.462-1.294-5.404-1.294-7.865,0l-40.077,21.069
	c-6.201,3.26-13.447-2.006-12.263-8.91l7.654-44.626c0.47-2.742-0.439-5.54-2.431-7.481l-32.423-31.604
	c-5.016-4.889-2.249-13.409,4.684-14.416l44.807-6.511c2.753-0.4,5.133-2.129,6.364-4.623l20.038-40.602
	C251.521,106.877,260.479,106.877,263.579,113.158z"/>
<path d="M306.727,448.406c-22.887,23.113-42.242,39.524-50.726,46.467c-12.978-10.633-51.454-43.488-89.476-88.943
	c-27.153-32.463-48.764-64.903-64.232-96.421c-19.149-39.017-28.858-76.68-28.858-111.94c0-55.349,24.699-107.093,67.767-141.964
	c3.22-2.607,3.717-7.331,1.109-10.551c-2.606-3.219-7.33-3.717-10.552-1.109c-46.602,37.733-73.33,93.728-73.33,153.625
	c0,37.618,10.25,77.556,30.467,118.703c16.029,32.627,38.341,66.111,66.316,99.521c47.491,56.721,94.228,93.115,96.194,94.638
	c1.352,1.045,2.972,1.568,4.591,1.568c1.619,0,3.24-0.523,4.591-1.568c1.02-0.789,25.331-19.688,56.798-51.467
	c2.916-2.944,2.893-7.694-0.052-10.609C314.392,445.439,309.641,445.461,306.727,448.406z"/>
<path d="M256,0c-34.544,0-68.545,9.049-98.326,26.169c-3.592,2.065-4.829,6.651-2.765,10.243c2.064,3.592,6.649,4.829,10.243,2.765
	C192.661,23.363,224.075,15.004,256,15.004c100.667,0,182.565,81.898,182.565,182.564c0,88.176-60.259,173.024-110.81,228.676
	c-2.786,3.067-2.558,7.812,0.509,10.598c1.436,1.305,3.242,1.949,5.042,1.949c2.041,0,4.074-0.828,5.556-2.458
	c52.329-57.61,114.708-145.798,114.708-238.765C453.569,88.629,364.94,0,256,0z"/>
<path d="M287.769,331.256c29.583-7.005,56.401-24.004,75.512-47.866c19.409-24.233,30.099-54.711,30.099-85.821
	c0-75.751-61.628-137.381-137.381-137.381c-75.751,0-137.38,61.628-137.38,137.381c0,75.751,61.628,137.38,137.38,137.38
	c4.144,0,7.502-3.359,7.502-7.502s-3.358-7.502-7.502-7.502c-67.478,0-122.375-54.897-122.375-122.375
	S188.522,75.192,255.999,75.192s122.376,54.897,122.376,122.376c0,28.113-9.27,54.547-26.806,76.442
	c-17.029,21.262-40.916,36.407-67.259,42.645c-4.031,0.955-6.526,4.997-5.571,9.029
	C279.694,329.716,283.739,332.207,287.769,331.256z"/>
<path d="M192.332,261.754c-1.033,6.029,1.398,12.009,6.348,15.604c4.949,3.597,11.387,4.061,16.802,1.214l40.075-21.07
	c0.277-0.146,0.608-0.145,0.884,0l40.077,21.069c2.355,1.238,4.903,1.851,7.439,1.851c3.294,0,6.566-1.032,9.362-3.064
	c4.949-3.596,7.382-9.575,6.348-15.605l-7.653-44.624c-0.053-0.309,0.049-0.623,0.273-0.842l32.423-31.604
	c4.38-4.27,5.927-10.537,4.036-16.355c-1.891-5.818-6.825-9.979-12.879-10.858l-44.808-6.512c-0.309-0.045-0.576-0.239-0.714-0.518
	l-20.038-40.602c-2.708-5.486-8.19-8.894-14.306-8.894c-6.117,0-11.599,3.408-14.307,8.894l-20.037,40.601
	c-0.139,0.281-0.406,0.475-0.716,0.521l-44.807,6.511c-6.054,0.879-10.988,5.04-12.879,10.858
	c-1.891,5.818-0.344,12.085,4.036,16.355l32.423,31.604c0.225,0.219,0.326,0.533,0.274,0.84L192.332,261.754z M177.764,173.938
	c-0.127-0.123-0.423-0.412-0.24-0.973c0.183-0.561,0.591-0.621,0.766-0.646l44.806-6.511c5.197-0.754,9.688-4.016,12.015-8.728
	l20.038-40.602c0.078-0.158,0.261-0.529,0.852-0.529c0.589,0,0.772,0.371,0.851,0.529l20.039,40.604
	c2.326,4.709,6.816,7.971,12.013,8.726l44.807,6.511c0.175,0.025,0.583,0.085,0.766,0.646c0.183,0.562-0.113,0.85-0.24,0.973
	l-32.421,31.603c-3.762,3.665-5.479,8.944-4.59,14.123l7.653,44.625c0.03,0.174,0.101,0.582-0.378,0.929
	c-0.475,0.346-0.843,0.155-0.999,0.072l-40.077-21.069c-2.324-1.222-4.873-1.834-7.423-1.834s-5.101,0.611-7.425,1.833
	l-40.076,21.07c-0.156,0.082-0.525,0.274-1-0.072c-0.478-0.347-0.407-0.754-0.378-0.928l7.655-44.627
	c0.887-5.177-0.829-10.455-4.589-14.12L177.764,173.938z"/>
<g>
</g>
<g>
</g>
<g>
</g>
<g>
</g>
<g>
</g>
<g>
</g>
<g>
</g>
<g>
</g>
<g>
</g>
<g>
</g>
<g>
</g>
<g>
</g>
<g>
</g>
<g>
</g>
<g>
</g>
</svg>
